<svg xmlns="http://www.w3.org/2000/svg"><path d="M154.165.071C135.871.898 119.62 9.013 108.13 21.56l-.045.05-85.91 94.49c.141-.282-.353-.247-2.754 3.178-1.243 1.68-2.262 3.624-2.959 5.714l-.042.147c-34.957 111.369-11.511 233.86 45.55 350.349 57.132 116.524 148.162 227.999 252.716 319.488 104.519 91.489 222.49 163.063 334.954 198.585 112.499 35.487 221.537 35.028 302.362-23.587.912-.681 1.719-1.388 2.469-2.151l.003-.003c2.119-2.119 2.189-2.401 1.836-2.083l85.804-94.385c10.668-11.803 17.196-27.524 17.196-44.77 0-19.47-8.32-36.996-21.598-49.218L834.913 592.895c-11.805-10.678-27.533-17.212-44.788-17.212-19.46 0-36.98 8.312-49.201 21.579L649.145 698.19c-74.505-21.539-138.169-58.121-199.398-113.805-61.228-55.72-103.671-115.677-132.167-187.816l91.701-100.882c10.687-11.807 17.228-27.543 17.228-44.806 0-19.451-8.304-36.963-21.56-49.183L202.115 17.195C190.378 6.521 174.712-.015 157.519-.015c-1.18 0-2.354.031-3.519.092l.163-.007zm1.907 41.383c.283-.012.615-.018.948-.018 6.562 0 12.529 2.546 16.968 6.704l-.014-.013 202.787 184.426c5.118 4.489 8.332 11.043 8.332 18.347 0 6.494-2.541 12.395-6.683 16.763l.01-.011-101.411 111.439c-3.334 3.679-5.374 8.584-5.374 13.966 0 2.579.469 5.049 1.326 7.329l-.047-.144c30.755 83.968 80.402 152.894 148.692 215.005C489.932 677.393 563.13 720.295 649.64 743c1.591.436 3.417.686 5.302.686 6.107 0 11.599-2.627 15.41-6.813l.015-.017 101.411-111.439c4.489-5.118 11.043-8.332 18.347-8.332 6.494 0 12.395 2.541 16.763 6.683L1009.7 808.184c5.107 4.489 8.313 11.035 8.313 18.33 0 6.503-2.547 12.41-6.699 16.779l.01-.01-84.78 93.219c-66.313 47.563-159.744 50.247-264.369 17.196-105.048-33.156-219.065-101.835-319.982-190.146S153.459 567.368 99.47 457.199C46.045 348.161 26.66 237.922 56.038 140.783l82.838-91.03c4.27-4.796 10.335-7.914 17.131-8.295l.065-.003z"/></svg>